<mxfile host="app.diagrams.net" agent="Mozilla/5.0 (Windows NT 10.0; Win64; x64; rv:135.0) Gecko/20100101 Firefox/135.0" version="26.3.0">
  <diagram name="Page-1" id="0783ab3e-0a74-02c8-0abd-f7b4e66b4bec">
    <mxGraphModel dx="1875" dy="455" grid="1" gridSize="10" guides="1" tooltips="1" connect="1" arrows="1" fold="1" page="1" pageScale="1" pageWidth="850" pageHeight="1100" background="none" math="0" shadow="0">
      <root>
        <mxCell id="0" />
        <mxCell id="1" parent="0" />
        <mxCell id="9kzETTMTDvsTJWJQEYAj-15" value="User" style="swimlane;fontStyle=0;childLayout=stackLayout;horizontal=1;startSize=26;fillColor=none;horizontalStack=0;resizeParent=1;resizeParentMax=0;resizeLast=0;collapsible=1;marginBottom=0;whiteSpace=wrap;html=1;" parent="1" vertex="1">
          <mxGeometry x="-270" y="508" width="140" height="62" as="geometry">
            <mxRectangle x="350" y="460" width="100" height="30" as="alternateBounds" />
          </mxGeometry>
        </mxCell>
        <mxCell id="9kzETTMTDvsTJWJQEYAj-19" value="Profile" style="swimlane;fontStyle=0;childLayout=stackLayout;horizontal=1;startSize=26;fillColor=none;horizontalStack=0;resizeParent=1;resizeParentMax=0;resizeLast=0;collapsible=1;marginBottom=0;whiteSpace=wrap;html=1;" parent="1" vertex="1">
          <mxGeometry y="348" width="150" height="40" as="geometry">
            <mxRectangle x="580" y="461" width="70" height="30" as="alternateBounds" />
          </mxGeometry>
        </mxCell>
        <mxCell id="9kzETTMTDvsTJWJQEYAj-29" value="Rest_Customer" style="swimlane;fontStyle=0;childLayout=stackLayout;horizontal=1;startSize=26;fillColor=none;horizontalStack=0;resizeParent=1;resizeParentMax=0;resizeLast=0;collapsible=1;marginBottom=0;whiteSpace=wrap;html=1;" parent="1" vertex="1">
          <mxGeometry x="290" y="343" width="140" height="52" as="geometry">
            <mxRectangle x="350" y="460" width="100" height="30" as="alternateBounds" />
          </mxGeometry>
        </mxCell>
        <mxCell id="9kzETTMTDvsTJWJQEYAj-43" value="Bait" style="swimlane;fontStyle=0;childLayout=stackLayout;horizontal=1;startSize=26;fillColor=none;horizontalStack=0;resizeParent=1;resizeParentMax=0;resizeLast=0;collapsible=1;marginBottom=0;whiteSpace=wrap;html=1;" parent="1" vertex="1">
          <mxGeometry x="-790" y="833" width="140" height="52" as="geometry">
            <mxRectangle x="350" y="460" width="100" height="30" as="alternateBounds" />
          </mxGeometry>
        </mxCell>
        <mxCell id="9kzETTMTDvsTJWJQEYAj-50" value="Choosen-ingredients" style="swimlane;fontStyle=0;childLayout=stackLayout;horizontal=1;startSize=12;fillColor=none;horizontalStack=0;resizeParent=1;resizeParentMax=0;resizeLast=0;collapsible=1;marginBottom=0;whiteSpace=wrap;html=1;" parent="1" vertex="1">
          <mxGeometry x="-230" y="833" width="140" height="52" as="geometry">
            <mxRectangle x="350" y="460" width="100" height="30" as="alternateBounds" />
          </mxGeometry>
        </mxCell>
        <mxCell id="9kzETTMTDvsTJWJQEYAj-67" value="Fish" style="swimlane;fontStyle=0;childLayout=stackLayout;horizontal=1;startSize=26;fillColor=none;horizontalStack=0;resizeParent=1;resizeParentMax=0;resizeLast=0;collapsible=1;marginBottom=0;whiteSpace=wrap;html=1;" parent="1" vertex="1">
          <mxGeometry x="-795" y="622" width="150" height="70" as="geometry">
            <mxRectangle x="580" y="461" width="70" height="30" as="alternateBounds" />
          </mxGeometry>
        </mxCell>
        <mxCell id="9kzETTMTDvsTJWJQEYAj-69" value="&lt;div&gt;Order&lt;/div&gt;" style="swimlane;fontStyle=0;childLayout=stackLayout;horizontal=1;startSize=26;fillColor=none;horizontalStack=0;resizeParent=1;resizeParentMax=0;resizeLast=0;collapsible=1;marginBottom=0;whiteSpace=wrap;html=1;" parent="1" vertex="1">
          <mxGeometry x="540" y="270" width="150" height="38" as="geometry">
            <mxRectangle x="580" y="461" width="70" height="30" as="alternateBounds" />
          </mxGeometry>
        </mxCell>
        <mxCell id="9kzETTMTDvsTJWJQEYAj-88" value="Weather" style="swimlane;fontStyle=0;childLayout=stackLayout;horizontal=1;startSize=30;fillColor=none;horizontalStack=0;resizeParent=1;resizeParentMax=0;resizeLast=0;collapsible=1;marginBottom=0;whiteSpace=wrap;html=1;" parent="1" vertex="1">
          <mxGeometry x="-790" y="730" width="140" height="52" as="geometry">
            <mxRectangle x="350" y="460" width="100" height="30" as="alternateBounds" />
          </mxGeometry>
        </mxCell>
        <mxCell id="9kzETTMTDvsTJWJQEYAj-95" value="Rating" style="swimlane;fontStyle=0;childLayout=stackLayout;horizontal=1;startSize=26;fillColor=none;horizontalStack=0;resizeParent=1;resizeParentMax=0;resizeLast=0;collapsible=1;marginBottom=0;whiteSpace=wrap;html=1;" parent="1" vertex="1">
          <mxGeometry x="460" y="524" width="135" height="66" as="geometry">
            <mxRectangle x="580" y="461" width="70" height="30" as="alternateBounds" />
          </mxGeometry>
        </mxCell>
        <mxCell id="cK02aoGFD56z1Gf120GQ-123" value="Fisherman" style="swimlane;fontStyle=0;childLayout=stackLayout;horizontal=1;startSize=26;fillColor=none;horizontalStack=0;resizeParent=1;resizeParentMax=0;resizeLast=0;collapsible=1;marginBottom=0;whiteSpace=wrap;html=1;" parent="1" vertex="1">
          <mxGeometry x="-430" y="757" width="150" height="50" as="geometry">
            <mxRectangle x="580" y="461" width="70" height="30" as="alternateBounds" />
          </mxGeometry>
        </mxCell>
        <mxCell id="cK02aoGFD56z1Gf120GQ-124" value="Chef" style="swimlane;fontStyle=0;childLayout=stackLayout;horizontal=1;startSize=26;fillColor=none;horizontalStack=0;resizeParent=1;resizeParentMax=0;resizeLast=0;collapsible=1;marginBottom=0;whiteSpace=wrap;html=1;" parent="1" vertex="1">
          <mxGeometry x="-20" y="670" width="150" height="50" as="geometry">
            <mxRectangle x="580" y="461" width="70" height="30" as="alternateBounds" />
          </mxGeometry>
        </mxCell>
        <mxCell id="cK02aoGFD56z1Gf120GQ-125" value="Fishing expertice" style="swimlane;fontStyle=0;childLayout=stackLayout;horizontal=1;startSize=26;fillColor=none;horizontalStack=0;resizeParent=1;resizeParentMax=0;resizeLast=0;collapsible=1;marginBottom=0;whiteSpace=wrap;html=1;" parent="1" vertex="1">
          <mxGeometry x="-550" y="900" width="150" height="40" as="geometry">
            <mxRectangle x="580" y="461" width="70" height="30" as="alternateBounds" />
          </mxGeometry>
        </mxCell>
        <mxCell id="cK02aoGFD56z1Gf120GQ-137" value="" style="endArrow=none;startArrow=none;endFill=0;startFill=0;endSize=8;html=1;verticalAlign=bottom;labelBackgroundColor=none;strokeWidth=3;rounded=0;entryX=0;entryY=0.25;entryDx=0;entryDy=0;exitX=1;exitY=0.5;exitDx=0;exitDy=0;" parent="1" source="9kzETTMTDvsTJWJQEYAj-88" target="cK02aoGFD56z1Gf120GQ-123" edge="1">
          <mxGeometry width="160" relative="1" as="geometry">
            <mxPoint x="-460" y="572" as="sourcePoint" />
            <mxPoint x="-300" y="572" as="targetPoint" />
          </mxGeometry>
        </mxCell>
        <mxCell id="cK02aoGFD56z1Gf120GQ-138" value="Checks" style="edgeLabel;html=1;align=center;verticalAlign=middle;resizable=0;points=[];" parent="cK02aoGFD56z1Gf120GQ-137" vertex="1" connectable="0">
          <mxGeometry x="0.0522" y="-5" relative="1" as="geometry">
            <mxPoint y="-1" as="offset" />
          </mxGeometry>
        </mxCell>
        <mxCell id="cK02aoGFD56z1Gf120GQ-141" value="" style="endArrow=none;startArrow=none;endFill=0;startFill=0;endSize=8;html=1;verticalAlign=bottom;labelBackgroundColor=none;strokeWidth=3;rounded=0;entryX=0;entryY=0.75;entryDx=0;entryDy=0;exitX=1;exitY=0.5;exitDx=0;exitDy=0;" parent="1" source="9kzETTMTDvsTJWJQEYAj-43" target="cK02aoGFD56z1Gf120GQ-123" edge="1">
          <mxGeometry width="160" relative="1" as="geometry">
            <mxPoint x="-400" y="660" as="sourcePoint" />
            <mxPoint x="-215" y="850" as="targetPoint" />
          </mxGeometry>
        </mxCell>
        <mxCell id="cK02aoGFD56z1Gf120GQ-143" value="Searches for" style="edgeLabel;html=1;align=center;verticalAlign=middle;resizable=0;points=[];" parent="cK02aoGFD56z1Gf120GQ-141" vertex="1" connectable="0">
          <mxGeometry x="-0.0807" relative="1" as="geometry">
            <mxPoint as="offset" />
          </mxGeometry>
        </mxCell>
        <mxCell id="mQlcEHzgQ4prbf6QyxQu-33" value="" style="endArrow=block;endSize=16;endFill=0;html=1;rounded=0;exitX=0;exitY=1;exitDx=0;exitDy=0;entryX=0.5;entryY=0;entryDx=0;entryDy=0;" parent="1" source="9kzETTMTDvsTJWJQEYAj-15" target="cK02aoGFD56z1Gf120GQ-123" edge="1">
          <mxGeometry width="160" relative="1" as="geometry">
            <mxPoint x="10" y="490" as="sourcePoint" />
            <mxPoint x="75" y="500" as="targetPoint" />
          </mxGeometry>
        </mxCell>
        <mxCell id="cK02aoGFD56z1Gf120GQ-151" value="" style="endArrow=none;startArrow=none;endFill=0;startFill=0;endSize=8;html=1;verticalAlign=bottom;labelBackgroundColor=none;strokeWidth=3;rounded=0;entryX=0.25;entryY=0;entryDx=0;entryDy=0;exitX=1;exitY=0.75;exitDx=0;exitDy=0;" parent="1" source="9kzETTMTDvsTJWJQEYAj-67" target="cK02aoGFD56z1Gf120GQ-123" edge="1">
          <mxGeometry width="160" relative="1" as="geometry">
            <mxPoint x="-370" y="350" as="sourcePoint" />
            <mxPoint x="-140" y="488" as="targetPoint" />
          </mxGeometry>
        </mxCell>
        <mxCell id="cK02aoGFD56z1Gf120GQ-155" value="Catches" style="edgeLabel;html=1;align=center;verticalAlign=middle;resizable=0;points=[];" parent="cK02aoGFD56z1Gf120GQ-151" vertex="1" connectable="0">
          <mxGeometry x="-0.082" y="-1" relative="1" as="geometry">
            <mxPoint as="offset" />
          </mxGeometry>
        </mxCell>
        <mxCell id="cK02aoGFD56z1Gf120GQ-157" value="" style="endArrow=none;startArrow=none;endFill=0;startFill=0;endSize=8;html=1;verticalAlign=bottom;labelBackgroundColor=none;strokeWidth=3;rounded=0;entryX=0;entryY=1;entryDx=0;entryDy=0;exitX=0.5;exitY=0;exitDx=0;exitDy=0;" parent="1" source="9kzETTMTDvsTJWJQEYAj-50" target="cK02aoGFD56z1Gf120GQ-124" edge="1">
          <mxGeometry width="160" relative="1" as="geometry">
            <mxPoint x="480" y="300" as="sourcePoint" />
            <mxPoint x="710" y="438" as="targetPoint" />
          </mxGeometry>
        </mxCell>
        <mxCell id="cK02aoGFD56z1Gf120GQ-177" value="Orders" style="edgeLabel;html=1;align=center;verticalAlign=middle;resizable=0;points=[];" parent="cK02aoGFD56z1Gf120GQ-157" vertex="1" connectable="0">
          <mxGeometry x="0.0179" y="-3" relative="1" as="geometry">
            <mxPoint as="offset" />
          </mxGeometry>
        </mxCell>
        <mxCell id="cK02aoGFD56z1Gf120GQ-167" value="" style="endArrow=block;endSize=16;endFill=0;html=1;rounded=0;exitX=1;exitY=1;exitDx=0;exitDy=0;entryX=0.5;entryY=0;entryDx=0;entryDy=0;" parent="1" source="9kzETTMTDvsTJWJQEYAj-15" target="cK02aoGFD56z1Gf120GQ-124" edge="1">
          <mxGeometry width="160" relative="1" as="geometry">
            <mxPoint x="260" y="378" as="sourcePoint" />
            <mxPoint x="260" y="500" as="targetPoint" />
          </mxGeometry>
        </mxCell>
        <mxCell id="GBRJXe8QP-XChiDNGdr2-5" value="" style="endArrow=none;startArrow=none;endFill=0;startFill=0;endSize=8;html=1;verticalAlign=bottom;labelBackgroundColor=none;strokeWidth=3;rounded=0;entryX=0.25;entryY=0;entryDx=0;entryDy=0;exitX=0.5;exitY=1;exitDx=0;exitDy=0;" parent="1" source="9kzETTMTDvsTJWJQEYAj-29" target="9kzETTMTDvsTJWJQEYAj-95" edge="1">
          <mxGeometry width="160" relative="1" as="geometry">
            <mxPoint x="150" y="629" as="sourcePoint" />
            <mxPoint x="445" y="642" as="targetPoint" />
          </mxGeometry>
        </mxCell>
        <mxCell id="GBRJXe8QP-XChiDNGdr2-6" value="Gives" style="edgeLabel;html=1;align=center;verticalAlign=middle;resizable=0;points=[];" parent="GBRJXe8QP-XChiDNGdr2-5" connectable="0" vertex="1">
          <mxGeometry x="-0.0807" relative="1" as="geometry">
            <mxPoint as="offset" />
          </mxGeometry>
        </mxCell>
        <mxCell id="GBRJXe8QP-XChiDNGdr2-9" value="" style="endArrow=none;startArrow=none;endFill=0;startFill=0;endSize=8;html=1;verticalAlign=bottom;labelBackgroundColor=none;strokeWidth=3;rounded=0;exitX=0.25;exitY=1;exitDx=0;exitDy=0;entryX=0.429;entryY=-0.016;entryDx=0;entryDy=0;entryPerimeter=0;" parent="1" source="9kzETTMTDvsTJWJQEYAj-19" target="9kzETTMTDvsTJWJQEYAj-15" edge="1">
          <mxGeometry width="160" relative="1" as="geometry">
            <mxPoint x="201" y="320" as="sourcePoint" />
            <mxPoint x="-120" y="440" as="targetPoint" />
          </mxGeometry>
        </mxCell>
        <mxCell id="GBRJXe8QP-XChiDNGdr2-10" value="Creates" style="edgeLabel;html=1;align=center;verticalAlign=middle;resizable=0;points=[];" parent="GBRJXe8QP-XChiDNGdr2-9" connectable="0" vertex="1">
          <mxGeometry x="-0.0807" relative="1" as="geometry">
            <mxPoint as="offset" />
          </mxGeometry>
        </mxCell>
        <mxCell id="GBRJXe8QP-XChiDNGdr2-11" value="" style="endArrow=none;startArrow=none;endFill=0;startFill=0;endSize=8;html=1;verticalAlign=bottom;labelBackgroundColor=none;strokeWidth=3;rounded=0;entryX=0;entryY=0.5;entryDx=0;entryDy=0;exitX=1;exitY=0.5;exitDx=0;exitDy=0;" parent="1" source="9kzETTMTDvsTJWJQEYAj-19" target="9kzETTMTDvsTJWJQEYAj-29" edge="1">
          <mxGeometry width="160" relative="1" as="geometry">
            <mxPoint x="140" y="318" as="sourcePoint" />
            <mxPoint x="120" y="350" as="targetPoint" />
          </mxGeometry>
        </mxCell>
        <mxCell id="GBRJXe8QP-XChiDNGdr2-12" value="Creates" style="edgeLabel;html=1;align=center;verticalAlign=middle;resizable=0;points=[];" parent="GBRJXe8QP-XChiDNGdr2-11" connectable="0" vertex="1">
          <mxGeometry x="-0.0807" relative="1" as="geometry">
            <mxPoint as="offset" />
          </mxGeometry>
        </mxCell>
        <mxCell id="GBRJXe8QP-XChiDNGdr2-14" value="" style="endArrow=none;startArrow=none;endFill=0;startFill=0;endSize=8;html=1;verticalAlign=bottom;labelBackgroundColor=none;strokeWidth=3;rounded=0;exitX=1;exitY=0.5;exitDx=0;exitDy=0;entryX=0;entryY=0.5;entryDx=0;entryDy=0;" parent="1" source="9kzETTMTDvsTJWJQEYAj-29" target="9kzETTMTDvsTJWJQEYAj-69" edge="1">
          <mxGeometry width="160" relative="1" as="geometry">
            <mxPoint x="340" y="402" as="sourcePoint" />
            <mxPoint x="460" y="410" as="targetPoint" />
          </mxGeometry>
        </mxCell>
        <mxCell id="GBRJXe8QP-XChiDNGdr2-15" value="Makes" style="edgeLabel;html=1;align=center;verticalAlign=middle;resizable=0;points=[];" parent="GBRJXe8QP-XChiDNGdr2-14" connectable="0" vertex="1">
          <mxGeometry x="-0.0807" relative="1" as="geometry">
            <mxPoint as="offset" />
          </mxGeometry>
        </mxCell>
        <mxCell id="GBRJXe8QP-XChiDNGdr2-16" value="Confirmation" style="swimlane;fontStyle=0;childLayout=stackLayout;horizontal=1;startSize=26;fillColor=none;horizontalStack=0;resizeParent=1;resizeParentMax=0;resizeLast=0;collapsible=1;marginBottom=0;whiteSpace=wrap;html=1;" parent="1" vertex="1">
          <mxGeometry x="690" y="150" width="140" height="52" as="geometry">
            <mxRectangle x="350" y="460" width="100" height="30" as="alternateBounds" />
          </mxGeometry>
        </mxCell>
        <mxCell id="GBRJXe8QP-XChiDNGdr2-17" value="" style="endArrow=none;startArrow=none;endFill=0;startFill=0;endSize=8;html=1;verticalAlign=bottom;labelBackgroundColor=none;strokeWidth=3;rounded=0;exitX=0.5;exitY=0;exitDx=0;exitDy=0;entryX=0;entryY=0.5;entryDx=0;entryDy=0;" parent="1" source="9kzETTMTDvsTJWJQEYAj-69" target="GBRJXe8QP-XChiDNGdr2-16" edge="1">
          <mxGeometry width="160" relative="1" as="geometry">
            <mxPoint x="410" y="402" as="sourcePoint" />
            <mxPoint x="435" y="472" as="targetPoint" />
          </mxGeometry>
        </mxCell>
        <mxCell id="GBRJXe8QP-XChiDNGdr2-18" value="Has" style="edgeLabel;html=1;align=center;verticalAlign=middle;resizable=0;points=[];" parent="GBRJXe8QP-XChiDNGdr2-17" connectable="0" vertex="1">
          <mxGeometry x="-0.0807" relative="1" as="geometry">
            <mxPoint as="offset" />
          </mxGeometry>
        </mxCell>
        <mxCell id="cK02aoGFD56z1Gf120GQ-192" value="" style="endArrow=none;startArrow=none;endFill=0;startFill=0;endSize=8;html=1;verticalAlign=bottom;labelBackgroundColor=none;strokeWidth=3;rounded=0;entryX=0.369;entryY=-0.048;entryDx=0;entryDy=0;exitX=0.5;exitY=1;exitDx=0;exitDy=0;entryPerimeter=0;" parent="1" source="cK02aoGFD56z1Gf120GQ-196" target="cK02aoGFD56z1Gf120GQ-123" edge="1">
          <mxGeometry width="160" relative="1" as="geometry">
            <mxPoint x="-380" y="540" as="sourcePoint" />
            <mxPoint x="-312" y="690" as="targetPoint" />
          </mxGeometry>
        </mxCell>
        <mxCell id="cK02aoGFD56z1Gf120GQ-195" value="Enters" style="edgeLabel;html=1;align=center;verticalAlign=middle;resizable=0;points=[];" parent="cK02aoGFD56z1Gf120GQ-192" vertex="1" connectable="0">
          <mxGeometry x="0.003" y="-3" relative="1" as="geometry">
            <mxPoint y="-1" as="offset" />
          </mxGeometry>
        </mxCell>
        <mxCell id="cK02aoGFD56z1Gf120GQ-196" value="FishingReport" style="swimlane;fontStyle=0;childLayout=stackLayout;horizontal=1;startSize=20;fillColor=none;horizontalStack=0;resizeParent=1;resizeParentMax=0;resizeLast=0;collapsible=1;marginBottom=0;whiteSpace=wrap;html=1;" parent="1" vertex="1">
          <mxGeometry x="-560" y="420" width="125" height="50" as="geometry">
            <mxRectangle x="350" y="460" width="100" height="30" as="alternateBounds" />
          </mxGeometry>
        </mxCell>
        <mxCell id="cK02aoGFD56z1Gf120GQ-208" value="Recipe" style="swimlane;fontStyle=0;childLayout=stackLayout;horizontal=1;startSize=26;fillColor=none;horizontalStack=0;resizeParent=1;resizeParentMax=0;resizeLast=0;collapsible=1;marginBottom=0;whiteSpace=wrap;html=1;" parent="1" vertex="1">
          <mxGeometry x="275" y="770" width="150" height="50" as="geometry">
            <mxRectangle x="580" y="461" width="70" height="30" as="alternateBounds" />
          </mxGeometry>
        </mxCell>
        <mxCell id="cK02aoGFD56z1Gf120GQ-211" value="" style="endArrow=none;startArrow=none;endFill=0;startFill=0;endSize=8;html=1;verticalAlign=bottom;labelBackgroundColor=none;strokeWidth=3;rounded=0;entryX=1;entryY=0.5;entryDx=0;entryDy=0;exitX=0.5;exitY=0;exitDx=0;exitDy=0;" parent="1" source="cK02aoGFD56z1Gf120GQ-208" target="cK02aoGFD56z1Gf120GQ-124" edge="1">
          <mxGeometry width="160" relative="1" as="geometry">
            <mxPoint x="450" y="740" as="sourcePoint" />
            <mxPoint x="745" y="594" as="targetPoint" />
          </mxGeometry>
        </mxCell>
        <mxCell id="cK02aoGFD56z1Gf120GQ-213" value="Selects" style="edgeLabel;html=1;align=center;verticalAlign=middle;resizable=0;points=[];" parent="cK02aoGFD56z1Gf120GQ-211" vertex="1" connectable="0">
          <mxGeometry x="0.0883" y="2" relative="1" as="geometry">
            <mxPoint as="offset" />
          </mxGeometry>
        </mxCell>
        <mxCell id="cK02aoGFD56z1Gf120GQ-214" value="&lt;div&gt;Dish&lt;/div&gt;" style="swimlane;fontStyle=0;childLayout=stackLayout;horizontal=1;startSize=26;fillColor=none;horizontalStack=0;resizeParent=1;resizeParentMax=0;resizeLast=0;collapsible=1;marginBottom=0;whiteSpace=wrap;html=1;" parent="1" vertex="1">
          <mxGeometry x="370" y="1020" width="150" height="50" as="geometry">
            <mxRectangle x="580" y="461" width="70" height="30" as="alternateBounds" />
          </mxGeometry>
        </mxCell>
        <mxCell id="cK02aoGFD56z1Gf120GQ-215" value="" style="endArrow=none;startArrow=none;endFill=0;startFill=0;endSize=8;html=1;verticalAlign=bottom;labelBackgroundColor=none;strokeWidth=3;rounded=0;entryX=0.5;entryY=1;entryDx=0;entryDy=0;exitX=0.5;exitY=0;exitDx=0;exitDy=0;" parent="1" source="cK02aoGFD56z1Gf120GQ-214" target="cK02aoGFD56z1Gf120GQ-208" edge="1">
          <mxGeometry width="160" relative="1" as="geometry">
            <mxPoint x="507.5" y="914" as="sourcePoint" />
            <mxPoint x="210" y="892" as="targetPoint" />
          </mxGeometry>
        </mxCell>
        <mxCell id="cK02aoGFD56z1Gf120GQ-217" value="Prepares" style="edgeLabel;html=1;align=center;verticalAlign=middle;resizable=0;points=[];" parent="cK02aoGFD56z1Gf120GQ-215" vertex="1" connectable="0">
          <mxGeometry x="0.1924" y="-1" relative="1" as="geometry">
            <mxPoint as="offset" />
          </mxGeometry>
        </mxCell>
        <mxCell id="cK02aoGFD56z1Gf120GQ-235" value="" style="endArrow=none;startArrow=none;endFill=0;startFill=0;endSize=8;html=1;verticalAlign=bottom;labelBackgroundColor=none;strokeWidth=3;rounded=0;exitX=0.5;exitY=0;exitDx=0;exitDy=0;entryX=0.5;entryY=1;entryDx=0;entryDy=0;" parent="1" source="9kzETTMTDvsTJWJQEYAj-19" target="cK02aoGFD56z1Gf120GQ-238" edge="1">
          <mxGeometry width="160" relative="1" as="geometry">
            <mxPoint x="100" y="180" as="sourcePoint" />
            <mxPoint x="80" y="110" as="targetPoint" />
          </mxGeometry>
        </mxCell>
        <mxCell id="cK02aoGFD56z1Gf120GQ-237" value="Enters" style="edgeLabel;html=1;align=center;verticalAlign=middle;resizable=0;points=[];" parent="cK02aoGFD56z1Gf120GQ-235" vertex="1" connectable="0">
          <mxGeometry x="0.0122" y="-2" relative="1" as="geometry">
            <mxPoint as="offset" />
          </mxGeometry>
        </mxCell>
        <mxCell id="cK02aoGFD56z1Gf120GQ-238" value="Personal Info" style="swimlane;fontStyle=0;childLayout=stackLayout;horizontal=1;startSize=26;fillColor=none;horizontalStack=0;resizeParent=1;resizeParentMax=0;resizeLast=0;collapsible=1;marginBottom=0;whiteSpace=wrap;html=1;" parent="1" vertex="1">
          <mxGeometry x="10" y="150" width="130" height="50" as="geometry">
            <mxRectangle x="580" y="461" width="70" height="30" as="alternateBounds" />
          </mxGeometry>
        </mxCell>
        <mxCell id="cK02aoGFD56z1Gf120GQ-255" value="" style="endArrow=none;startArrow=none;endFill=0;startFill=0;endSize=8;html=1;verticalAlign=bottom;labelBackgroundColor=none;strokeWidth=3;rounded=0;exitX=1;exitY=1;exitDx=0;exitDy=0;entryX=0;entryY=0.5;entryDx=0;entryDy=0;" parent="1" source="9kzETTMTDvsTJWJQEYAj-29" target="cK02aoGFD56z1Gf120GQ-257" edge="1">
          <mxGeometry width="160" relative="1" as="geometry">
            <mxPoint x="580" y="430" as="sourcePoint" />
            <mxPoint x="700" y="430" as="targetPoint" />
          </mxGeometry>
        </mxCell>
        <mxCell id="cK02aoGFD56z1Gf120GQ-258" value="Searches" style="edgeLabel;html=1;align=center;verticalAlign=middle;resizable=0;points=[];" parent="cK02aoGFD56z1Gf120GQ-255" vertex="1" connectable="0">
          <mxGeometry x="0.1151" y="4" relative="1" as="geometry">
            <mxPoint x="-1" as="offset" />
          </mxGeometry>
        </mxCell>
        <mxCell id="cK02aoGFD56z1Gf120GQ-257" value="Recipes" style="swimlane;fontStyle=0;childLayout=stackLayout;horizontal=1;startSize=26;fillColor=none;horizontalStack=0;resizeParent=1;resizeParentMax=0;resizeLast=0;collapsible=1;marginBottom=0;whiteSpace=wrap;html=1;" parent="1" vertex="1">
          <mxGeometry x="650" y="411" width="150" height="59" as="geometry">
            <mxRectangle x="580" y="461" width="70" height="30" as="alternateBounds" />
          </mxGeometry>
        </mxCell>
        <mxCell id="cK02aoGFD56z1Gf120GQ-272" value="Friends" style="swimlane;fontStyle=0;childLayout=stackLayout;horizontal=1;startSize=26;fillColor=none;horizontalStack=0;resizeParent=1;resizeParentMax=0;resizeLast=0;collapsible=1;marginBottom=0;whiteSpace=wrap;html=1;" parent="1" vertex="1">
          <mxGeometry x="170" y="560" width="140" height="62" as="geometry">
            <mxRectangle x="350" y="460" width="100" height="30" as="alternateBounds" />
          </mxGeometry>
        </mxCell>
        <mxCell id="cK02aoGFD56z1Gf120GQ-273" value="" style="endArrow=none;startArrow=none;endFill=0;startFill=0;endSize=8;html=1;verticalAlign=bottom;labelBackgroundColor=none;strokeWidth=3;rounded=0;exitX=0;exitY=0.5;exitDx=0;exitDy=0;entryX=1;entryY=0.5;entryDx=0;entryDy=0;" parent="1" source="cK02aoGFD56z1Gf120GQ-272" target="9kzETTMTDvsTJWJQEYAj-15" edge="1">
          <mxGeometry width="160" relative="1" as="geometry">
            <mxPoint x="40" y="510" as="sourcePoint" />
            <mxPoint x="30" y="580" as="targetPoint" />
          </mxGeometry>
        </mxCell>
        <mxCell id="cK02aoGFD56z1Gf120GQ-278" value="Makes" style="edgeLabel;html=1;align=center;verticalAlign=middle;resizable=0;points=[];" parent="cK02aoGFD56z1Gf120GQ-273" vertex="1" connectable="0">
          <mxGeometry x="-0.075" y="1" relative="1" as="geometry">
            <mxPoint as="offset" />
          </mxGeometry>
        </mxCell>
        <mxCell id="RsBH3FpBVpJ5FogJQQQI-5" value="" style="endArrow=block;endSize=16;endFill=0;html=1;rounded=0;entryX=0.5;entryY=0;entryDx=0;entryDy=0;exitX=0;exitY=0.5;exitDx=0;exitDy=0;" parent="1" target="cK02aoGFD56z1Gf120GQ-125" edge="1">
          <mxGeometry width="160" relative="1" as="geometry">
            <mxPoint x="-380" y="807" as="sourcePoint" />
            <mxPoint x="-920" y="1118" as="targetPoint" />
          </mxGeometry>
        </mxCell>
        <mxCell id="0oGXfinGUsQ3fprHd6LS-1" value="" style="endArrow=block;endSize=16;endFill=0;html=1;rounded=0;exitX=0.993;exitY=0.145;exitDx=0;exitDy=0;entryX=0;entryY=1;entryDx=0;entryDy=0;exitPerimeter=0;" parent="1" source="9kzETTMTDvsTJWJQEYAj-15" target="9kzETTMTDvsTJWJQEYAj-29" edge="1">
          <mxGeometry width="160" relative="1" as="geometry">
            <mxPoint x="-100" y="470" as="sourcePoint" />
            <mxPoint x="75" y="570" as="targetPoint" />
          </mxGeometry>
        </mxCell>
        <mxCell id="0oGXfinGUsQ3fprHd6LS-5" value="&lt;b&gt;&lt;u&gt;Πρόταση για προσθήκη Πληθηκότητας σε όλο το διάγραμμα για να είναι πιο κατανοητές οι ενέργιες που επιτελούνται!&lt;/u&gt;&lt;/b&gt;" style="text;whiteSpace=wrap;html=1;" parent="1" vertex="1">
          <mxGeometry x="-490" y="280" width="410" height="60" as="geometry" />
        </mxCell>
        <mxCell id="0oGXfinGUsQ3fprHd6LS-6" value="" style="endArrow=none;dashed=1;html=1;dashPattern=1 3;strokeWidth=2;rounded=0;exitX=0.75;exitY=1;exitDx=0;exitDy=0;entryX=0.443;entryY=-0.1;entryDx=0;entryDy=0;entryPerimeter=0;" parent="1" source="cK02aoGFD56z1Gf120GQ-125" target="0oGXfinGUsQ3fprHd6LS-7" edge="1">
          <mxGeometry width="50" height="50" relative="1" as="geometry">
            <mxPoint x="-360" y="922" as="sourcePoint" />
            <mxPoint x="-340" y="970" as="targetPoint" />
          </mxGeometry>
        </mxCell>
        <mxCell id="0oGXfinGUsQ3fprHd6LS-7" value="Beginner fisherman//Expert Fisherman" style="text;html=1;align=center;verticalAlign=middle;whiteSpace=wrap;rounded=0;" parent="1" vertex="1">
          <mxGeometry x="-425" y="990" width="140" height="30" as="geometry" />
        </mxCell>
        <mxCell id="g74GNhyGJaju9K6ZVI7z-1" value="Order" style="swimlane;fontStyle=0;childLayout=stackLayout;horizontal=1;startSize=12;fillColor=none;horizontalStack=0;resizeParent=1;resizeParentMax=0;resizeLast=0;collapsible=1;marginBottom=0;whiteSpace=wrap;html=1;" vertex="1" parent="1">
          <mxGeometry x="-60" y="920" width="120" height="52" as="geometry">
            <mxRectangle x="350" y="460" width="100" height="30" as="alternateBounds" />
          </mxGeometry>
        </mxCell>
        <mxCell id="g74GNhyGJaju9K6ZVI7z-2" value="" style="endArrow=none;startArrow=none;endFill=0;startFill=0;endSize=8;html=1;verticalAlign=bottom;labelBackgroundColor=none;strokeWidth=3;rounded=0;exitX=0.5;exitY=0;exitDx=0;exitDy=0;" edge="1" parent="1" source="g74GNhyGJaju9K6ZVI7z-1">
          <mxGeometry width="160" relative="1" as="geometry">
            <mxPoint x="560" y="380" as="sourcePoint" />
            <mxPoint x="10" y="720" as="targetPoint" />
          </mxGeometry>
        </mxCell>
        <mxCell id="g74GNhyGJaju9K6ZVI7z-3" value="Finishes" style="edgeLabel;html=1;align=center;verticalAlign=middle;resizable=0;points=[];" vertex="1" connectable="0" parent="g74GNhyGJaju9K6ZVI7z-2">
          <mxGeometry x="0.0179" y="-3" relative="1" as="geometry">
            <mxPoint as="offset" />
          </mxGeometry>
        </mxCell>
        <mxCell id="g74GNhyGJaju9K6ZVI7z-5" value="Choosen-producer" style="swimlane;fontStyle=0;childLayout=stackLayout;horizontal=1;startSize=12;fillColor=none;horizontalStack=0;resizeParent=1;resizeParentMax=0;resizeLast=0;collapsible=1;marginBottom=0;whiteSpace=wrap;html=1;" vertex="1" parent="1">
          <mxGeometry x="87.5" y="833" width="160" height="52" as="geometry">
            <mxRectangle x="350" y="460" width="100" height="30" as="alternateBounds" />
          </mxGeometry>
        </mxCell>
        <mxCell id="g74GNhyGJaju9K6ZVI7z-6" value="" style="endArrow=none;startArrow=none;endFill=0;startFill=0;endSize=8;html=1;verticalAlign=bottom;labelBackgroundColor=none;strokeWidth=3;rounded=0;exitX=0.5;exitY=0;exitDx=0;exitDy=0;" edge="1" parent="1" source="g74GNhyGJaju9K6ZVI7z-5">
          <mxGeometry width="160" relative="1" as="geometry">
            <mxPoint x="570" y="390" as="sourcePoint" />
            <mxPoint x="70" y="720" as="targetPoint" />
          </mxGeometry>
        </mxCell>
        <mxCell id="g74GNhyGJaju9K6ZVI7z-7" value="Selects" style="edgeLabel;html=1;align=center;verticalAlign=middle;resizable=0;points=[];" vertex="1" connectable="0" parent="g74GNhyGJaju9K6ZVI7z-6">
          <mxGeometry x="0.0179" y="-3" relative="1" as="geometry">
            <mxPoint as="offset" />
          </mxGeometry>
        </mxCell>
      </root>
    </mxGraphModel>
  </diagram>
</mxfile>
